<svg xmlns="http://www.w3.org/2000/svg" viewBox="-4950 -6884 220 33.54">
	<style>
		.path {
			fill: #fff;
		}
	</style>
	<g transform="translate(-4950 -6884)">
		<path class="path" d="M254.409,206.633h-7.781a.8.8,0,0,0-.755.68l-1.435,5.666-4.079-15.561c0-.378-1.511-.6-2.8-.529-1.36-.076-2.8.151-2.8.529l-4.155,15.561-4.155-15.561c0-.755-4.759-.755-4.759,0l6.119,23.342c.076.3,1.36.529,2.493.529,1.284,0,2.8-.151,2.946-.529l4.23-15.939,4.23,15.939c.076.378,1.662.529,2.946.529,1.209,0,2.493-.227,2.493-.529l2.493-9.82h4.684v-4.306Z" transform="translate(-177.962 -187.747)"/>
		<path class="path" d="M371.853,221.029A11.01,11.01,0,0,1,360.9,210.075v-3.022A10.961,10.961,0,0,1,371.853,196.1h.227a10.961,10.961,0,0,1,10.953,10.953v1.209c0,1.209-.227,2.568-.982,2.568H365.886a6.106,6.106,0,0,0,6.043,5.288h.906a6.223,6.223,0,0,0,5.212-3.022c.68-1.133,4.91,1.284,4.23,2.493a11.058,11.058,0,0,1-9.443,5.439Zm0-20.018a6.116,6.116,0,0,0-6.043,5.363h12.238A6.06,6.06,0,0,0,372,201.01Z" transform="translate(-212.008 -187.564)"/>
		<path class="path" d="M417.854,221.029A11.01,11.01,0,0,1,406.9,210.075v-3.022A10.961,10.961,0,0,1,417.854,196.1h.227a10.961,10.961,0,0,1,10.953,10.953v1.209c0,1.209-.227,2.568-.982,2.568H411.886a6.088,6.088,0,0,0,5.968,5.288h.906a6.223,6.223,0,0,0,5.212-3.022c.68-1.133,4.91,1.284,4.23,2.493a11.058,11.058,0,0,1-9.443,5.439Zm0-20.018a5.986,5.986,0,0,0-5.968,5.363h12.238a6.116,6.116,0,0,0-6.043-5.363Z" transform="translate(-223.259 -187.564)"/>
		<path class="path" d="M313.8,198.064a23.7,23.7,0,0,1,10.123-1.964,8.24,8.24,0,0,1,5.212,1.586,23.2,23.2,0,0,1,9.216-1.586c6.043,0,9.216,4.91,9.216,10.953V220.5c0,.755-4.91.755-4.91,0V207.053c0-3.324-.982-6.043-4.306-6.043h-.907a11.669,11.669,0,0,0-4.306.982v18.432c0,.755-4.91.755-4.91,0V206.978c0-3.324-.982-6.043-4.306-6.043h-.906a11.669,11.669,0,0,0-4.306.982v18.432c0,.755-4.91.755-4.91,0Z" transform="translate(-200.488 -187.564)"/>
		<path class="path" d="M392.889,198.315h-3.173c-.755,0-.755-4.532,0-4.532h3.173v-6.648c0-.68,4.91-.68,4.91,0v6.648h4.532c.755,0,.755,4.532,0,4.532H397.8v13.673c0,1.964,1.586,1.813,3.55,1.813h.982c.755,0,.755,4.91,0,4.91h-.982c-5.439,0-8.461-.831-8.461-6.345Z" transform="translate(-218.918 -185.246)"/>
		<path class="path" d="M438.2,198.058a21.543,21.543,0,0,1,12.238-1.737c1.209.3-.151,4.91-1.058,4.759a5.351,5.351,0,0,0-1.133-.076h-.831a11.314,11.314,0,0,0-4.306.982v18.432c0,.755-4.91.755-4.91,0Z" transform="translate(-230.915 -187.558)"/>
		<path class="path" d="M274.753,221.029A11.01,11.01,0,0,1,263.8,210.075v-3.022A10.961,10.961,0,0,1,274.753,196.1h.151a10.961,10.961,0,0,1,10.953,10.953v1.209c0,1.209-.227,2.568-.982,2.568H268.71a6.106,6.106,0,0,0,6.043,5.288h.906a6.223,6.223,0,0,0,5.212-3.022c.68-1.133,4.91,1.284,4.23,2.493a11.058,11.058,0,0,1-9.443,5.439Zm0-20.018a6.116,6.116,0,0,0-6.043,5.363h12.238a6,6,0,0,0-6.043-5.363Z" transform="translate(-188.259 -187.564)"/>
		<path class="path" d="M192.6,207.053A10.961,10.961,0,0,1,203.553,196.1h.831a10.961,10.961,0,0,1,10.953,10.953v3.022a10.961,10.961,0,0,1-10.953,10.953h-.831A10.961,10.961,0,0,1,192.6,210.075Zm17.828,0a6.061,6.061,0,0,0-6.043-6.043h-.831a6.013,6.013,0,0,0-6.043,6.043v3.022a6.061,6.061,0,0,0,6.043,6.043h.831a6.061,6.061,0,0,0,6.043-6.043Z" transform="translate(-170.844 -187.564)"/>
		<path class="path" d="M163.8,185.253c0-.227,1.058-.453,2.417-.453h10.047a10.726,10.726,0,0,1,10.274,10.425,10.523,10.523,0,0,1-10.274,10.2h-7.479v11.709c0,.6-4.986.6-4.986,0Zm4.986,4.457v11.18h7.479c3.022,0,5.288-3.324,5.288-5.666,0-2.417-2.266-5.514-5.288-5.514Z" transform="translate(-163.8 -184.8)"/>
		<path class="path" d="M296.1,198.058a21.543,21.543,0,0,1,12.238-1.737c1.209.3-.151,4.91-1.058,4.759a5.351,5.351,0,0,0-1.133-.076h-.831a11.314,11.314,0,0,0-4.306.982v18.432c0,.755-4.91.755-4.91,0Z" transform="translate(-196.159 -187.558)"/>
	</g>
</svg>